<svg width="271" height="250" viewBox="0 0 271 250" fill="none" xmlns="http://www.w3.org/2000/svg">
<rect x="10" width="250" height="250" rx="125" fill="black"/>
<ellipse cx="135" cy="79.5" rx="40" ry="45.5" fill="#D8AC0F"/>
<ellipse cx="135" cy="80" rx="30" ry="35" fill="black"/>
<path d="M205.418 176.874C204.575 184.431 198.21 190.162 190.606 190.21L100.4 190.787C91.4193 190.845 84.4011 183.05 85.397 174.124L95.3999 84.4728C96.243 76.9157 102.608 71.1851 110.211 71.1364L200.417 70.5595C209.398 70.502 216.417 78.2966 215.421 87.2225L205.418 176.874Z" fill="#D8AC0F"/>
<path d="M81.2563 190.903C73.6528 190.987 67.1892 185.368 66.2143 177.827L54.6483 88.3637C53.4968 79.4566 60.3779 71.5408 69.3586 71.4414L159.561 70.444C167.164 70.3599 173.628 75.9786 174.603 83.5199L186.169 172.983C187.32 181.89 180.439 189.806 171.458 189.905L81.2563 190.903Z" fill="#D8AC0F"/>
<path d="M90.5278 139.4C88.2611 139.4 86.0478 138.987 83.8878 138.16C81.7278 137.307 79.8078 136.107 78.1278 134.56L81.4478 130.4C83.0745 131.813 84.6345 132.853 86.1278 133.52C87.6478 134.16 89.2478 134.48 90.9278 134.48C92.1011 134.48 93.1145 134.347 93.9678 134.08C94.8211 133.787 95.4745 133.373 95.9278 132.84C96.4078 132.307 96.6478 131.68 96.6478 130.96C96.6478 130 96.3011 129.267 95.6078 128.76C94.9145 128.227 93.7278 127.813 92.0478 127.52L86.4878 126.56C84.1145 126.16 82.3011 125.32 81.0478 124.04C79.8211 122.76 79.2078 121.107 79.2078 119.08C79.2078 117.347 79.6478 115.84 80.5278 114.56C81.4345 113.28 82.7011 112.307 84.3278 111.64C85.9811 110.947 87.9411 110.6 90.2078 110.6C92.2611 110.6 94.3011 110.947 96.3278 111.64C98.3811 112.333 100.194 113.293 101.768 114.52L98.6478 118.84C95.7145 116.6 92.7678 115.48 89.8078 115.48C88.7678 115.48 87.8611 115.613 87.0878 115.88C86.3145 116.147 85.7145 116.52 85.2878 117C84.8878 117.453 84.6878 118 84.6878 118.64C84.6878 119.493 84.9945 120.16 85.6078 120.64C86.2211 121.093 87.2478 121.44 88.6878 121.68L93.9678 122.56C96.7678 123.013 98.8611 123.907 100.248 125.24C101.634 126.547 102.328 128.28 102.328 130.44C102.328 132.253 101.848 133.84 100.888 135.2C99.9278 136.533 98.5545 137.573 96.7678 138.32C95.0078 139.04 92.9278 139.4 90.5278 139.4ZM113.482 139.4C111.882 139.4 110.456 139.053 109.202 138.36C107.976 137.64 107.002 136.653 106.282 135.4C105.589 134.147 105.242 132.707 105.242 131.08V118.16H110.722V130.28C110.722 131.613 111.109 132.68 111.882 133.48C112.682 134.28 113.749 134.68 115.082 134.68C115.989 134.68 116.802 134.507 117.522 134.16C118.269 133.787 118.882 133.267 119.362 132.6V118.16H124.842V139H119.362V137.32C117.762 138.707 115.802 139.4 113.482 139.4ZM129.113 147.16V118.16H134.513V119.88C136.22 118.547 138.193 117.88 140.433 117.88C142.406 117.88 144.193 118.36 145.793 119.32C147.393 120.28 148.66 121.573 149.593 123.2C150.553 124.8 151.033 126.6 151.033 128.6C151.033 130.6 150.553 132.413 149.593 134.04C148.633 135.64 147.34 136.92 145.713 137.88C144.086 138.813 142.273 139.28 140.273 139.28C139.233 139.28 138.233 139.147 137.273 138.88C136.313 138.587 135.42 138.173 134.593 137.64V147.16H129.113ZM139.553 134.64C140.7 134.64 141.726 134.373 142.633 133.84C143.566 133.307 144.3 132.587 144.833 131.68C145.366 130.773 145.633 129.747 145.633 128.6C145.633 127.453 145.366 126.427 144.833 125.52C144.3 124.587 143.566 123.867 142.633 123.36C141.726 122.827 140.7 122.56 139.553 122.56C138.54 122.56 137.606 122.733 136.753 123.08C135.926 123.4 135.206 123.893 134.593 124.56V132.68C135.18 133.267 135.9 133.747 136.753 134.12C137.633 134.467 138.566 134.64 139.553 134.64ZM164.587 139.4C162.507 139.4 160.613 138.92 158.907 137.96C157.227 137 155.893 135.707 154.907 134.08C153.92 132.453 153.427 130.627 153.427 128.6C153.427 126.573 153.893 124.747 154.827 123.12C155.787 121.493 157.08 120.2 158.707 119.24C160.333 118.28 162.147 117.8 164.147 117.8C166.147 117.8 167.92 118.293 169.467 119.28C171.013 120.267 172.227 121.6 173.107 123.28C174.013 124.96 174.467 126.867 174.467 129V130.44H159.027C159.267 131.267 159.653 132.013 160.187 132.68C160.747 133.347 161.427 133.867 162.227 134.24C163.053 134.613 163.933 134.8 164.867 134.8C165.8 134.8 166.653 134.653 167.427 134.36C168.227 134.067 168.907 133.653 169.467 133.12L173.067 136.4C171.787 137.44 170.467 138.2 169.107 138.68C167.773 139.16 166.267 139.4 164.587 139.4ZM158.947 126.52H169.067C168.88 125.693 168.533 124.973 168.027 124.36C167.547 123.72 166.96 123.227 166.267 122.88C165.6 122.507 164.853 122.32 164.027 122.32C163.173 122.32 162.4 122.493 161.707 122.84C161.04 123.187 160.467 123.68 159.987 124.32C159.507 124.933 159.16 125.667 158.947 126.52ZM177.824 139V118.16H183.304V120.48C183.971 119.573 184.771 118.88 185.704 118.4C186.637 117.92 187.691 117.68 188.864 117.68C189.877 117.707 190.637 117.867 191.144 118.16V122.96C190.744 122.773 190.304 122.64 189.824 122.56C189.344 122.453 188.851 122.4 188.344 122.4C187.277 122.4 186.304 122.667 185.424 123.2C184.544 123.733 183.837 124.493 183.304 125.48V139H177.824Z" fill="black"/>
</svg>
