<svg width="271" height="250" viewBox="0 0 271 250" fill="none" xmlns="http://www.w3.org/2000/svg">
<rect x="10" width="250" height="250" fill="black"/>
<ellipse cx="135" cy="64.4998" rx="40" ry="45.5" fill="#D8AC0F"/>
<ellipse cx="135" cy="64.9998" rx="30" ry="35" fill="black"/>
<path d="M205.423 165.874C204.579 173.431 198.215 179.162 190.611 179.21L100.405 179.787C91.4242 179.845 84.406 172.05 85.4019 163.124L95.4047 73.4728C96.2479 65.9157 102.612 60.1851 110.216 60.1364L200.422 59.5595C209.403 59.502 216.421 67.2966 215.425 76.2225L205.423 165.874Z" fill="#D8AC0F"/>
<path d="M81.2612 179.903C73.6577 179.987 67.1941 174.368 66.2192 166.827L54.6532 77.3637C53.5016 68.4566 60.3828 60.5408 69.3635 60.4414L159.566 59.444C167.169 59.3599 173.633 64.9786 174.608 72.5199L186.174 161.983C187.325 170.89 180.444 178.806 171.463 178.905L81.2612 179.903Z" fill="#D8AC0F"/>
<path d="M48.0523 225.28V197.2C48.959 196.693 50.0523 196.413 51.3323 196.36C52.1057 196.333 53.1323 196.32 54.4123 196.32C55.719 196.293 57.0923 196.267 58.5323 196.24C59.999 196.213 61.4257 196.2 62.8123 196.2C64.2257 196.173 65.4123 196.16 66.3723 196.16C66.319 196.72 66.159 197.227 65.8923 197.68C65.6523 198.133 65.3723 198.427 65.0523 198.56C64.1457 198.56 63.119 198.547 61.9723 198.52C60.8257 198.467 59.639 198.427 58.4123 198.4C57.1857 198.347 55.959 198.293 54.7323 198.24C53.5057 198.187 52.3723 198.133 51.3323 198.08V209.84L64.0123 209.6C63.959 210.08 63.8257 210.52 63.6123 210.92C63.399 211.32 63.159 211.547 62.8923 211.6C60.9457 211.573 59.0123 211.56 57.0923 211.56C55.1723 211.533 53.2523 211.493 51.3323 211.44V223.52C53.679 223.467 56.119 223.387 58.6523 223.28C61.1857 223.147 63.8657 222.987 66.6923 222.8C66.6123 223.413 66.4523 223.947 66.2123 224.4C65.9723 224.827 65.7057 225.12 65.4123 225.28H48.0523ZM70.3008 220.76C70.5141 220.387 70.8608 220.04 71.3408 219.72C71.8474 219.4 72.3808 219.213 72.9408 219.16C73.1274 220.52 73.7808 221.653 74.9008 222.56C76.0474 223.44 77.5008 223.88 79.2608 223.88C80.9408 223.88 82.1808 223.52 82.9808 222.8C83.8074 222.053 84.2208 221.133 84.2208 220.04C84.2208 218.947 83.8341 218.093 83.0608 217.48C82.3141 216.867 81.0208 216.333 79.1808 215.88L76.8208 215.28C75.9674 215.067 75.1941 214.827 74.5008 214.56C73.8341 214.293 73.2474 213.973 72.7408 213.6C72.2608 213.2 71.8874 212.733 71.6208 212.2C71.3541 211.667 71.2208 211.013 71.2208 210.24C71.2208 209.413 71.4341 208.613 71.8608 207.84C72.2874 207.04 72.8741 206.333 73.6208 205.72C74.3941 205.107 75.2741 204.627 76.2608 204.28C77.2741 203.907 78.3674 203.72 79.5408 203.72C80.7408 203.72 81.7541 203.867 82.5808 204.16C83.4074 204.427 84.0874 204.773 84.6208 205.2C85.1808 205.6 85.5808 206.04 85.8208 206.52C86.0874 207 86.2341 207.427 86.2608 207.8C86.0741 208.173 85.7541 208.507 85.3008 208.8C84.8474 209.067 84.3541 209.227 83.8208 209.28C83.6341 208.267 83.1141 207.387 82.2608 206.64C81.4074 205.893 80.1274 205.52 78.4208 205.52C77.8608 205.52 77.3008 205.6 76.7408 205.76C76.2074 205.893 75.7274 206.107 75.3008 206.4C74.8741 206.693 74.5274 207.053 74.2608 207.48C73.9941 207.88 73.8608 208.36 73.8608 208.92C73.8608 209.827 74.1808 210.56 74.8208 211.12C75.4608 211.653 76.5808 212.107 78.1808 212.48L80.6208 213.08C82.9408 213.667 84.5941 214.413 85.5808 215.32C86.5941 216.2 87.1008 217.333 87.1008 218.72C87.1008 219.6 86.9008 220.467 86.5008 221.32C86.1008 222.147 85.5141 222.893 84.7408 223.56C83.9674 224.2 83.0208 224.707 81.9008 225.08C80.7808 225.48 79.5008 225.68 78.0608 225.68C76.8074 225.68 75.7141 225.52 74.7808 225.2C73.8474 224.907 73.0474 224.52 72.3808 224.04C71.7408 223.56 71.2474 223.04 70.9008 222.48C70.5541 221.893 70.3541 221.32 70.3008 220.76ZM110.363 223.52C110.283 223.653 110.15 223.813 109.963 224C109.803 224.187 109.616 224.373 109.403 224.56C109.19 224.72 108.95 224.867 108.683 225C108.443 225.133 108.216 225.227 108.003 225.28C107.15 225.227 106.43 224.907 105.843 224.32C105.256 223.707 104.936 222.907 104.883 221.92C104.67 222.32 104.35 222.747 103.923 223.2C103.496 223.627 102.976 224.027 102.363 224.4C101.776 224.747 101.096 225.027 100.323 225.24C99.5496 225.48 98.7096 225.6 97.803 225.6C95.9096 225.6 94.403 225.12 93.283 224.16C92.1896 223.2 91.643 221.92 91.643 220.32C91.643 218.667 92.2696 217.28 93.523 216.16C94.7763 215.04 96.923 214.213 99.963 213.68L104.723 212.84V211.28C104.723 209.36 104.27 207.893 103.363 206.88C102.483 205.867 101.163 205.36 99.403 205.36C98.3096 205.36 97.3763 205.64 96.603 206.2C95.8563 206.733 95.483 207.533 95.483 208.6C95.483 209.08 95.643 209.507 95.963 209.88C95.723 210.2 95.3363 210.493 94.803 210.76C94.2696 211.027 93.723 211.187 93.163 211.24C93.0296 211.107 92.8696 210.907 92.683 210.64C92.4963 210.373 92.403 210.013 92.403 209.56C92.403 208.733 92.643 207.96 93.123 207.24C93.603 206.52 94.2296 205.907 95.003 205.4C95.7763 204.867 96.6696 204.453 97.683 204.16C98.6963 203.867 99.7496 203.72 100.843 203.72C103.403 203.72 105.216 204.307 106.283 205.48C107.35 206.627 107.883 208.24 107.883 210.32V220.36C107.883 221.453 108.123 222.213 108.603 222.64C109.083 223.04 109.643 223.28 110.283 223.36L110.363 223.52ZM99.083 223.48C100.47 223.48 101.643 223.16 102.603 222.52C103.59 221.88 104.296 221.053 104.723 220.04V214.28L99.363 215.24C97.923 215.507 96.8163 215.96 96.043 216.6C95.2963 217.24 94.923 218.16 94.923 219.36C94.923 220.693 95.323 221.72 96.123 222.44C96.9496 223.133 97.9363 223.48 99.083 223.48ZM130.337 212.52C130.337 210.253 129.871 208.6 128.937 207.56C128.004 206.493 126.684 205.96 124.977 205.96C124.364 205.96 123.751 206.08 123.137 206.32C122.551 206.533 121.977 206.827 121.417 207.2C120.884 207.573 120.377 208.013 119.897 208.52C119.417 209 118.991 209.507 118.617 210.04V224.68C118.244 224.893 117.751 225.04 117.137 225.12C116.551 225.227 115.991 225.28 115.457 225.28V204.8C116.337 204.347 117.324 204.12 118.417 204.12V208.08C118.764 207.627 119.204 207.147 119.737 206.64C120.297 206.107 120.911 205.627 121.577 205.2C122.271 204.773 123.017 204.427 123.817 204.16C124.644 203.867 125.524 203.72 126.457 203.72C128.617 203.72 130.324 204.373 131.577 205.68C132.857 206.987 133.497 208.853 133.497 211.28V224.68C133.124 224.893 132.631 225.04 132.017 225.12C131.431 225.227 130.871 225.28 130.337 225.28V212.52ZM147.45 218.24C147.05 218.24 146.663 218.227 146.29 218.2C145.943 218.147 145.583 218.093 145.21 218.04C144.517 218.307 143.957 218.653 143.53 219.08C143.103 219.48 142.89 219.933 142.89 220.44C142.89 221.213 143.29 221.747 144.09 222.04C144.89 222.333 146.063 222.52 147.61 222.6L151.81 222.8C153.063 222.853 154.117 223.053 154.97 223.4C155.85 223.747 156.557 224.187 157.09 224.72C157.623 225.227 158.01 225.8 158.25 226.44C158.49 227.08 158.61 227.72 158.61 228.36C158.61 229.453 158.33 230.453 157.77 231.36C157.21 232.267 156.423 233.04 155.41 233.68C154.423 234.32 153.237 234.813 151.85 235.16C150.463 235.533 148.943 235.72 147.29 235.72C146.037 235.72 144.89 235.613 143.85 235.4C142.81 235.187 141.903 234.853 141.13 234.4C140.383 233.973 139.797 233.44 139.37 232.8C138.943 232.187 138.73 231.453 138.73 230.6C138.73 229.933 138.85 229.347 139.09 228.84C139.357 228.333 139.69 227.893 140.09 227.52C140.517 227.147 140.983 226.827 141.49 226.56C141.997 226.32 142.503 226.133 143.01 226C143.143 226.053 143.25 226.16 143.33 226.32C143.41 226.48 143.463 226.627 143.49 226.76C143.01 227.027 142.597 227.387 142.25 227.84C141.903 228.293 141.73 228.933 141.73 229.76C141.73 230.453 141.903 231.053 142.25 231.56C142.623 232.093 143.13 232.533 143.77 232.88C144.41 233.227 145.17 233.48 146.05 233.64C146.957 233.8 147.943 233.88 149.01 233.88C151.277 233.88 152.97 233.48 154.09 232.68C155.237 231.88 155.81 230.88 155.81 229.68C155.81 228.48 155.383 227.507 154.53 226.76C153.677 226.013 152.197 225.573 150.09 225.44L145.93 225.2C143.93 225.067 142.463 224.733 141.53 224.2C140.597 223.64 140.13 222.8 140.13 221.68C140.13 221.2 140.223 220.747 140.41 220.32C140.623 219.893 140.89 219.507 141.21 219.16C141.557 218.813 141.93 218.507 142.33 218.24C142.757 217.947 143.17 217.707 143.57 217.52C142.397 217.013 141.477 216.267 140.81 215.28C140.143 214.267 139.81 213.04 139.81 211.6C139.81 210.507 140.037 209.48 140.49 208.52C140.97 207.56 141.623 206.733 142.45 206.04C143.277 205.32 144.237 204.76 145.33 204.36C146.45 203.933 147.65 203.72 148.93 203.72C149.383 203.72 149.81 203.747 150.21 203.8C150.61 203.853 150.997 203.92 151.37 204C151.503 204.027 151.637 204.04 151.77 204.04C151.93 204.04 152.117 204.04 152.33 204.04C153.503 204.04 154.303 203.853 154.73 203.48C155.183 203.08 155.41 202.587 155.41 202C155.41 201.653 155.343 201.36 155.21 201.12C155.077 200.853 154.903 200.627 154.69 200.44C155.517 199.667 156.503 199.28 157.65 199.28C157.89 199.493 158.09 199.787 158.25 200.16C158.41 200.507 158.49 200.907 158.49 201.36C158.49 202.48 158.037 203.347 157.13 203.96C156.25 204.547 155.09 204.867 153.65 204.92C154.663 205.587 155.383 206.427 155.81 207.44C156.263 208.453 156.49 209.467 156.49 210.48C156.49 211.653 156.25 212.72 155.77 213.68C155.29 214.613 154.637 215.427 153.81 216.12C153.01 216.787 152.05 217.307 150.93 217.68C149.837 218.053 148.677 218.24 147.45 218.24ZM147.93 205.32C147.263 205.32 146.637 205.44 146.05 205.68C145.49 205.893 144.983 206.227 144.53 206.68C144.103 207.107 143.757 207.64 143.49 208.28C143.25 208.92 143.13 209.667 143.13 210.52C143.13 211.48 143.263 212.347 143.53 213.12C143.797 213.867 144.157 214.507 144.61 215.04C145.09 215.547 145.65 215.947 146.29 216.24C146.93 216.507 147.61 216.64 148.33 216.64C148.997 216.64 149.623 216.547 150.21 216.36C150.797 216.173 151.303 215.88 151.73 215.48C152.183 215.08 152.53 214.56 152.77 213.92C153.037 213.28 153.17 212.507 153.17 211.6C153.17 210.773 153.05 209.987 152.81 209.24C152.597 208.493 152.263 207.827 151.81 207.24C151.383 206.653 150.837 206.187 150.17 205.84C149.53 205.493 148.783 205.32 147.93 205.32ZM163.309 204.8C164.189 204.347 165.189 204.12 166.309 204.12V209.88C166.576 209.08 166.936 208.32 167.389 207.6C167.842 206.853 168.376 206.2 168.989 205.64C169.629 205.08 170.336 204.64 171.109 204.32C171.882 203.973 172.736 203.8 173.669 203.8C174.389 203.8 175.016 203.92 175.549 204.16C176.082 204.373 176.522 204.653 176.869 205C177.216 205.32 177.469 205.693 177.629 206.12C177.816 206.547 177.922 206.96 177.949 207.36C177.736 207.733 177.362 208.053 176.829 208.32C176.322 208.587 175.816 208.747 175.309 208.8C175.176 208.08 174.882 207.44 174.429 206.88C173.976 206.32 173.216 206.04 172.149 206.04C171.376 206.04 170.656 206.267 169.989 206.72C169.349 207.173 168.776 207.813 168.269 208.64C167.762 209.44 167.349 210.4 167.029 211.52C166.736 212.64 166.549 213.867 166.469 215.2V224.68C166.096 224.893 165.602 225.04 164.989 225.12C164.402 225.227 163.842 225.28 163.309 225.28V204.8ZM199.465 223.52C199.385 223.653 199.251 223.813 199.065 224C198.905 224.187 198.718 224.373 198.505 224.56C198.291 224.72 198.051 224.867 197.785 225C197.545 225.133 197.318 225.227 197.105 225.28C196.251 225.227 195.531 224.907 194.945 224.32C194.358 223.707 194.038 222.907 193.985 221.92C193.771 222.32 193.451 222.747 193.025 223.2C192.598 223.627 192.078 224.027 191.465 224.4C190.878 224.747 190.198 225.027 189.425 225.24C188.651 225.48 187.811 225.6 186.905 225.6C185.011 225.6 183.505 225.12 182.385 224.16C181.291 223.2 180.745 221.92 180.745 220.32C180.745 218.667 181.371 217.28 182.625 216.16C183.878 215.04 186.025 214.213 189.065 213.68L193.825 212.84V211.28C193.825 209.36 193.371 207.893 192.465 206.88C191.585 205.867 190.265 205.36 188.505 205.36C187.411 205.36 186.478 205.64 185.705 206.2C184.958 206.733 184.585 207.533 184.585 208.6C184.585 209.08 184.745 209.507 185.065 209.88C184.825 210.2 184.438 210.493 183.905 210.76C183.371 211.027 182.825 211.187 182.265 211.24C182.131 211.107 181.971 210.907 181.785 210.64C181.598 210.373 181.505 210.013 181.505 209.56C181.505 208.733 181.745 207.96 182.225 207.24C182.705 206.52 183.331 205.907 184.105 205.4C184.878 204.867 185.771 204.453 186.785 204.16C187.798 203.867 188.851 203.72 189.945 203.72C192.505 203.72 194.318 204.307 195.385 205.48C196.451 206.627 196.985 208.24 196.985 210.32V220.36C196.985 221.453 197.225 222.213 197.705 222.64C198.185 223.04 198.745 223.28 199.385 223.36L199.465 223.52ZM188.185 223.48C189.571 223.48 190.745 223.16 191.705 222.52C192.691 221.88 193.398 221.053 193.825 220.04V214.28L188.465 215.24C187.025 215.507 185.918 215.96 185.145 216.6C184.398 217.24 184.025 218.16 184.025 219.36C184.025 220.693 184.425 221.72 185.225 222.44C186.051 223.133 187.038 223.48 188.185 223.48ZM219.559 212.52C219.559 210.253 219.092 208.6 218.159 207.56C217.226 206.493 215.906 205.96 214.199 205.96C213.586 205.96 212.972 206.08 212.359 206.32C211.746 206.533 211.159 206.84 210.599 207.24C210.066 207.613 209.559 208.053 209.079 208.56C208.599 209.04 208.172 209.56 207.799 210.12V224.68C207.426 224.893 206.932 225.04 206.319 225.12C205.732 225.227 205.172 225.28 204.639 225.28V194.8C205.092 194.56 205.586 194.387 206.119 194.28C206.679 194.173 207.239 194.12 207.799 194.12V207.8C208.172 207.347 208.626 206.88 209.159 206.4C209.692 205.92 210.292 205.48 210.959 205.08C211.626 204.68 212.346 204.36 213.119 204.12C213.919 203.853 214.772 203.72 215.679 203.72C217.839 203.72 219.546 204.373 220.799 205.68C222.079 206.987 222.719 208.853 222.719 211.28V224.68C222.346 224.893 221.852 225.04 221.239 225.12C220.652 225.227 220.092 225.28 219.559 225.28V212.52Z" fill="#D8AC0F"/>
<path d="M151.455 136.031C151.455 134.371 151.195 132.906 150.674 131.637C150.186 130.335 149.307 129.163 148.037 128.121C146.8 127.079 145.075 126.087 142.861 125.143C140.68 124.199 137.913 123.238 134.561 122.262C131.045 121.22 127.871 120.064 125.039 118.795C122.207 117.493 119.782 116.012 117.764 114.352C115.745 112.691 114.199 110.787 113.125 108.639C112.051 106.49 111.514 104.033 111.514 101.266C111.514 98.4987 112.083 95.9434 113.223 93.5996C114.362 91.2559 115.99 89.2214 118.105 87.4961C120.254 85.7383 122.809 84.3711 125.771 83.3945C128.734 82.418 132.038 81.9297 135.684 81.9297C141.022 81.9297 145.547 82.9551 149.258 85.0059C153.001 87.0241 155.85 89.6771 157.803 92.9648C159.756 96.2201 160.732 99.7031 160.732 103.414H151.357C151.357 100.745 150.788 98.3848 149.648 96.334C148.509 94.2507 146.784 92.623 144.473 91.4512C142.161 90.2467 139.232 89.6445 135.684 89.6445C132.331 89.6445 129.564 90.1491 127.383 91.1582C125.202 92.1673 123.574 93.5345 122.5 95.2598C121.458 96.985 120.938 98.9544 120.938 101.168C120.938 102.665 121.247 104.033 121.865 105.27C122.516 106.474 123.509 107.597 124.844 108.639C126.211 109.68 127.936 110.641 130.02 111.52C132.135 112.398 134.658 113.245 137.588 114.059C141.624 115.198 145.107 116.467 148.037 117.867C150.967 119.267 153.376 120.846 155.264 122.604C157.184 124.329 158.6 126.298 159.512 128.512C160.456 130.693 160.928 133.167 160.928 135.934C160.928 138.831 160.342 141.451 159.17 143.795C157.998 146.139 156.322 148.141 154.141 149.801C151.96 151.461 149.339 152.747 146.279 153.658C143.252 154.537 139.867 154.977 136.123 154.977C132.835 154.977 129.596 154.521 126.406 153.609C123.249 152.698 120.368 151.331 117.764 149.508C115.192 147.685 113.125 145.439 111.562 142.77C110.033 140.068 109.268 136.943 109.268 133.395H118.643C118.643 135.836 119.115 137.936 120.059 139.693C121.003 141.419 122.288 142.851 123.916 143.99C125.576 145.13 127.448 145.976 129.531 146.529C131.647 147.05 133.844 147.311 136.123 147.311C139.411 147.311 142.194 146.855 144.473 145.943C146.751 145.032 148.477 143.73 149.648 142.037C150.853 140.344 151.455 138.342 151.455 136.031Z" fill="black"/>
</svg>
