<svg width="55" height="38" viewBox="0 0 55 38" fill="none" xmlns="http://www.w3.org/2000/svg">
<path fill-rule="evenodd" clip-rule="evenodd" d="M8.98668 29.9524V35.2858C8.98668 35.993 9.26764 36.6713 9.76773 37.1714C10.2678 37.6715 10.9461 37.9524 11.6534 37.9524H51.6534C52.3606 37.9524 53.0389 37.6715 53.539 37.1714C54.0391 36.6713 54.32 35.993 54.32 35.2858V13.9524C54.32 13.2452 54.0391 12.5669 53.539 12.0668C53.0389 11.5667 52.3606 11.2858 51.6534 11.2858H48.3334V16.1778C48.6987 16.7228 49.1928 17.1694 49.7719 17.478C50.3509 17.7867 50.9972 17.9478 51.6534 17.9471V31.2858C50.5964 31.2918 49.5848 31.7158 48.8396 32.4653C48.0943 33.2148 47.676 34.2288 47.676 35.2858H15.6467C15.6327 34.2348 15.2059 33.2316 14.4585 32.4927C13.7111 31.7538 12.703 31.3384 11.652 31.3364V29.9524H8.98535H8.98668Z" fill="black"/>
<path d="M28.3337 13.9524C28.3337 15.3669 27.7718 16.7235 26.7716 17.7236C25.7714 18.7238 24.4148 19.2857 23.0003 19.2857C21.5858 19.2857 20.2293 18.7238 19.2291 17.7236C18.2289 16.7235 17.667 15.3669 17.667 13.9524C17.667 12.5379 18.2289 11.1814 19.2291 10.1812C20.2293 9.18098 21.5858 8.61908 23.0003 8.61908C24.4148 8.61908 25.7714 9.18098 26.7716 10.1812C27.7718 11.1814 28.3337 12.5379 28.3337 13.9524Z" fill="black"/>
<path fill-rule="evenodd" clip-rule="evenodd" d="M3.00016 0.61908C2.29292 0.61908 1.61464 0.900032 1.11454 1.40013C0.614448 1.90023 0.333496 2.5785 0.333496 3.28575V24.6191C0.333496 25.3263 0.614448 26.0046 1.11454 26.5047C1.61464 27.0048 2.29292 27.2857 3.00016 27.2857H43.0002C43.7074 27.2857 44.3857 27.0048 44.8858 26.5047C45.3859 26.0046 45.6668 25.3263 45.6668 24.6191V3.28575C45.6668 2.5785 45.3859 1.90023 44.8858 1.40013C44.3857 0.900032 43.7074 0.61908 43.0002 0.61908H3.00016ZM6.9975 3.28575H39.0015C39.0026 4.34557 39.4243 5.36161 40.1741 6.11065C40.9239 6.85968 41.9403 7.28041 43.0002 7.28041V20.6191C41.943 20.6244 40.931 21.0482 40.1856 21.7979C39.4402 22.5475 39.0221 23.5619 39.0228 24.6191H6.99483C6.98151 23.5679 6.55495 22.5643 5.80739 21.8252C5.05983 21.0861 4.05138 20.6711 3.00016 20.6697V7.28575C3.52532 7.28575 4.04534 7.18226 4.53049 6.98121C5.01564 6.78016 5.45643 6.48548 5.82765 6.11401C6.19887 5.74254 6.49325 5.30156 6.69398 4.81628C6.89471 4.33099 6.99785 3.81091 6.9975 3.28575Z" fill="black"/>
</svg>
