<svg width="1000" height="353" viewBox="0 0 1000 353" fill="none" xmlns="http://www.w3.org/2000/svg">
<rect width="1000" height="353" fill="white"/>
<path d="M106.29 187.809H143.242C143.242 188.197 143.046 189.166 142.653 190.716C142.391 192.137 142.063 193.881 141.67 195.948C141.277 198.015 140.884 200.276 140.49 202.731C140.228 205.186 140.097 207.447 140.097 209.514C140.097 210.806 140.228 212.162 140.49 213.583C140.753 215.005 141.211 216.361 141.866 217.653C142.522 218.816 143.439 219.849 144.618 220.754C145.929 221.529 147.501 221.916 149.335 221.916C152.742 221.916 155.429 220.56 157.394 217.847C159.491 215.005 161.325 209.901 162.898 202.537L182.75 110.292H225.403L206.14 199.243C204.437 206.865 201.488 213.067 197.295 217.847C193.102 222.498 188.254 226.115 182.75 228.699C177.377 231.283 171.612 232.963 165.453 233.738C159.294 234.642 153.398 235.094 147.763 235.094C141.211 235.094 135.577 234.642 130.859 233.738C126.142 232.963 121.949 231.8 118.28 230.249C114.742 228.699 111.531 226.826 108.648 224.63C105.766 222.304 102.883 219.785 100 217.072L106.29 187.809Z" fill="black"/>
<path d="M328.564 233.35H286.108L297.901 178.507H273.725L261.931 233.35H219.475L246.01 110.292H288.663L277.066 163.779H301.046L312.643 110.292H355.492L328.564 233.35Z" fill="black"/>
<path d="M459.276 233.35H413.282L410.53 202.537H374.168L360.212 233.35H341.146L399.13 110.292H445.714L459.276 233.35ZM380.654 188.39H409.154L404.634 135.679L380.654 188.39Z" fill="black"/>
<path d="M577.962 125.021H546.317L522.926 233.35H480.47L503.861 125.021H472.608L476.146 110.292H581.303L577.962 125.021Z" fill="black"/>
<path d="M686.989 125.021H655.343L631.953 233.35H589.497L612.887 125.021H581.635L585.173 110.292H690.33L686.989 125.021Z" fill="black"/>
<path d="M817.25 110.292H900L896.855 125.021H856.758L848.502 162.422H882.113L878.969 176.957H845.357L836.316 218.428H876.413L873.465 233.35H790.715L817.25 110.292Z" fill="black"/>
<g clip-path="url(#clip0_1963_584)">
<mask id="mask0_1963_584" style="mask-type:luminance" maskUnits="userSpaceOnUse" x="606" y="57" width="245" height="240">
<path d="M850.046 136.176L686.929 57L606.623 217.824L769.741 297L850.046 136.176Z" fill="white"/>
</mask>
<g mask="url(#mask0_1963_584)">
<path d="M778.967 107.918L754.071 95.8341C750.554 94.1268 745.283 94.7839 742.305 97.2972L674.785 154.335C670.388 158.048 671.036 163.111 676.227 165.631L720.142 186.947C725.336 189.468 726.25 194.81 722.183 198.871L683.105 237.877C674.436 246.531 676.327 249.085 687.328 243.579L782.741 195.816C787.903 193.233 787.877 189.087 782.685 186.567L738.771 165.251C733.577 162.73 732.853 157.583 737.157 153.765L780.061 115.695C782.973 113.11 782.484 109.626 778.967 107.918Z" fill="#ED7829"/>
</g>
</g>
<defs>
<clipPath id="clip0_1963_584">
<rect width="181.318" height="179.759" fill="white" transform="matrix(0.899622 0.436671 -0.44674 0.894664 686.929 57)"/>
</clipPath>
</defs>
</svg>
