<svg width="1000" height="407" viewBox="0 0 1000 407" fill="none" xmlns="http://www.w3.org/2000/svg">
<rect width="1000" height="407" fill="black"/>
<path d="M106.29 214.809H143.242C143.242 215.197 143.046 216.166 142.653 217.716C142.391 219.137 142.063 220.881 141.67 222.949C141.277 225.016 140.884 227.277 140.49 229.731C140.228 232.186 140.097 234.447 140.097 236.514C140.097 237.806 140.228 239.163 140.49 240.584C140.753 242.005 141.211 243.361 141.866 244.653C142.522 245.816 143.439 246.85 144.618 247.754C145.929 248.529 147.501 248.917 149.335 248.917C152.742 248.917 155.429 247.56 157.394 244.847C159.491 242.005 161.325 236.902 162.898 229.538L182.75 137.293H225.403L206.14 226.243C204.437 233.866 201.488 240.067 197.295 244.847C193.102 249.498 188.254 253.115 182.75 255.699C177.377 258.283 171.612 259.963 165.453 260.738C159.294 261.642 153.398 262.095 147.763 262.095C141.211 262.095 135.577 261.642 130.859 260.738C126.142 259.963 121.949 258.8 118.28 257.25C114.742 255.699 111.531 253.826 108.648 251.63C105.766 249.304 102.883 246.785 100 244.072L106.29 214.809Z" fill="white"/>
<path d="M328.564 260.35H286.108L297.901 205.507H273.725L261.931 260.35H219.475L246.01 137.293H288.663L277.066 190.779H301.046L312.643 137.293H355.492L328.564 260.35Z" fill="white"/>
<path d="M459.276 260.35H413.282L410.53 229.538H374.168L360.212 260.35H341.146L399.13 137.293H445.714L459.276 260.35ZM380.654 215.391H409.154L404.634 162.679L380.654 215.391Z" fill="white"/>
<path d="M577.962 152.021H546.317L522.926 260.35H480.47L503.86 152.021H472.608L476.146 137.293H581.303L577.962 152.021Z" fill="white"/>
<path d="M686.989 152.021H655.343L631.953 260.35H589.497L612.887 152.021H581.635L585.173 137.293H690.33L686.989 152.021Z" fill="white"/>
<path d="M817.25 137.293H900L896.855 152.021H856.758L848.502 189.423H882.113L878.968 203.957H845.357L836.316 245.428H876.413L873.465 260.35H790.715L817.25 137.293Z" fill="white"/>
<g clip-path="url(#clip0_1958_564)">
<mask id="mask0_1958_564" style="mask-type:luminance" maskUnits="userSpaceOnUse" x="606" y="84" width="245" height="240">
<path d="M850.047 163.176L686.93 84L606.624 244.824L769.742 324L850.047 163.176Z" fill="white"/>
</mask>
<g mask="url(#mask0_1958_564)">
<path d="M778.968 134.918L754.072 122.834C750.554 121.127 745.284 121.784 742.306 124.297L674.786 181.335C670.389 185.048 671.037 190.111 676.228 192.631L720.143 213.947C725.337 216.468 726.251 221.81 722.184 225.871L683.106 264.877C674.437 273.531 676.328 276.085 687.329 270.579L782.742 222.816C787.904 220.233 787.878 216.087 782.686 213.567L738.772 192.251C733.578 189.73 732.854 184.583 737.158 180.765L780.062 142.695C782.974 140.11 782.485 136.626 778.968 134.918Z" fill="#F6CC35"/>
</g>
</g>
<defs>
<clipPath id="clip0_1958_564">
<rect width="181.318" height="179.759" fill="white" transform="matrix(0.899622 0.436671 -0.44674 0.894664 686.93 84)"/>
</clipPath>
</defs>
</svg>
