<svg width="1000" height="1000" viewBox="0 0 1000 1000" fill="none" xmlns="http://www.w3.org/2000/svg">
<rect width="1000" height="1000" fill="black"/>
<path d="M104.319 510.766H141.443C141.443 511.145 141.245 512.091 140.851 513.605C140.587 514.993 140.258 516.697 139.863 518.716C139.468 520.735 139.073 522.943 138.678 525.341C138.415 527.738 138.283 529.947 138.283 531.966C138.283 533.228 138.415 534.553 138.678 535.941C138.942 537.329 139.402 538.654 140.061 539.916C140.719 541.051 141.64 542.061 142.825 542.944C144.142 543.701 145.721 544.08 147.564 544.08C150.987 544.08 153.686 542.755 155.661 540.105C157.767 537.329 159.61 532.344 161.19 525.151L181.134 435.053H223.985L204.633 521.934C202.921 529.379 199.959 535.436 195.747 540.105C191.534 544.648 186.663 548.181 181.134 550.705C175.737 553.228 169.944 554.869 163.757 555.626C157.57 556.509 151.645 556.951 145.985 556.951C139.402 556.951 133.742 556.509 129.002 555.626C124.263 554.869 120.051 553.733 116.365 552.219C112.81 550.705 109.585 548.875 106.689 546.73C103.792 544.458 100.896 541.998 98 539.348L104.319 510.766Z" fill="white"/>
<path d="M327.624 555.247H284.971L296.819 501.68H272.531L260.683 555.247H218.03L244.688 435.053H287.538L275.888 487.295H299.979L311.63 435.053H354.678L327.624 555.247Z" fill="white"/>
<path d="M458.944 555.247H412.736L409.972 525.151H373.44L359.42 555.247H340.266L398.519 435.053H445.319L458.944 555.247ZM379.957 511.334H408.589L404.048 459.849L379.957 511.334Z" fill="white"/>
<path d="M578.181 449.438H546.388L522.89 555.247H480.236L503.735 449.438H472.338L475.892 435.053H581.538L578.181 449.438Z" fill="white"/>
<path d="M687.714 449.438H655.921L632.423 555.247H589.769L613.268 449.438H581.871L585.425 435.053H691.071L687.714 449.438Z" fill="white"/>
<path d="M818.579 435.053H901.713L898.554 449.438H858.27L849.977 485.97H883.744L880.584 500.166H846.817L837.734 540.673H878.017L875.055 555.247H791.921L818.579 435.053Z" fill="white"/>
<g clip-path="url(#clip0_1947_1089)">
<mask id="mask0_1947_1089" style="mask-type:luminance" maskUnits="userSpaceOnUse" x="606" y="383" width="246" height="235">
<path d="M851.528 460.334L687.653 383L606.975 540.082L770.85 617.416L851.528 460.334Z" fill="white"/>
</mask>
<g mask="url(#mask0_1947_1089)">
<path d="M780.118 432.734L755.107 420.93C751.573 419.263 746.278 419.905 743.286 422.36L675.453 478.07C671.035 481.697 671.686 486.642 676.902 489.104L721.02 509.924C726.239 512.386 727.157 517.604 723.071 521.57L683.812 559.669C675.103 568.122 677.003 570.616 688.055 565.239L783.91 518.586C789.096 516.063 789.07 512.014 783.854 509.552L739.736 488.732C734.518 486.27 733.791 481.243 738.114 477.514L781.218 440.33C784.143 437.804 783.652 434.401 780.118 432.734Z" fill="#F6CC35"/>
</g>
</g>
<defs>
<clipPath id="clip0_1947_1089">
<rect width="181.206" height="176.589" fill="white" transform="matrix(0.904357 0.426776 -0.45687 0.889534 687.653 383)"/>
</clipPath>
</defs>
</svg>
