<svg width="28" height="28" viewBox="0 0 28 28" fill="none" xmlns="http://www.w3.org/2000/svg">
<path d="M25.6657 11.2816C25.5921 11.0682 25.4581 10.8808 25.28 10.742C25.1019 10.6033 24.8873 10.5192 24.6624 10.4999L18.0241 9.53159L15.0491 3.49993C14.9535 3.30268 14.8044 3.13632 14.6187 3.01993C14.433 2.90353 14.2182 2.8418 13.9991 2.8418C13.7799 2.8418 13.5652 2.90353 13.3795 3.01993C13.1938 3.13632 13.0446 3.30268 12.9491 3.49993L9.97408 9.51992L3.33575 10.4999C3.11982 10.5306 2.91682 10.6212 2.74979 10.7614C2.58275 10.9017 2.45837 11.0859 2.39075 11.2933C2.32885 11.4959 2.32329 11.7115 2.37468 11.9171C2.42606 12.1226 2.53245 12.3103 2.68241 12.4599L7.50074 17.1266L6.33408 23.7533C6.29243 23.972 6.31424 24.1981 6.39693 24.4048C6.47962 24.6115 6.61974 24.7903 6.80075 24.9199C6.97717 25.046 7.18525 25.1205 7.40163 25.1349C7.61802 25.1494 7.83414 25.1032 8.02575 25.0016L13.9991 21.8866L19.9491 25.0133C20.1128 25.1056 20.2977 25.1539 20.4857 25.1533C20.7329 25.1541 20.9739 25.0765 21.1741 24.9316C21.3551 24.8019 21.4952 24.6232 21.5779 24.4165C21.6606 24.2097 21.6824 23.9836 21.6407 23.7649L20.4741 17.1383L25.2924 12.4716C25.4609 12.3289 25.5854 12.1413 25.6514 11.9307C25.7175 11.72 25.7225 11.4949 25.6657 11.2816ZM18.4907 15.9483C18.3539 16.0806 18.2516 16.2444 18.1926 16.4254C18.1336 16.6064 18.1198 16.799 18.1524 16.9866L18.9924 21.8749L14.6057 19.5416C14.4369 19.4517 14.2486 19.4047 14.0574 19.4047C13.8662 19.4047 13.6779 19.4517 13.5091 19.5416L9.12241 21.8749L9.96241 16.9866C9.995 16.799 9.98121 16.6064 9.92224 16.4254C9.86326 16.2444 9.7609 16.0806 9.62408 15.9483L6.12408 12.4483L11.0357 11.7366C11.2247 11.7103 11.4044 11.6381 11.559 11.5262C11.7136 11.4143 11.8384 11.2662 11.9224 11.0949L13.9991 6.64992L16.1924 11.1066C16.2765 11.2779 16.4012 11.426 16.5558 11.5379C16.7104 11.6497 16.8901 11.722 17.0791 11.7483L21.9907 12.4599L18.4907 15.9483Z" fill="#327251"/>
</svg>
